<?xml version="1.0" standalone="no"?><!DOCTYPE svg PUBLIC "-//W3C//DTD SVG 1.1//EN" "http://www.w3.org/Graphics/SVG/1.1/DTD/svg11.dtd"><svg t="1545067247090" class="icon" style="" viewBox="0 0 1024 1024" version="1.1" xmlns="http://www.w3.org/2000/svg" p-id="1648" xmlns:xlink="http://www.w3.org/1999/xlink" width="48" height="48"><defs><style type="text/css"></style></defs><path d="M840.704 256.896c0 0-178.112 0-228.992 0C529.088 256.896 529.216 128 470.784 128 384.768 128 300.864 128 220.416 128 202.432 128 191.36 128 183.232 128 117.44 128 64 181.44 64 247.296l0 527.552c0 65.856 53.44 119.232 119.232 119.232l657.408 0c65.856 0 119.296-53.376 119.296-119.232l0-398.72C960 310.272 906.56 256.896 840.704 256.896zM672 574.144 512 574.144l0 160c0 17.664-14.336 32-32 32S448 751.808 448 734.144l0-160L288 574.144c-17.664 0-32-14.336-32-32s14.336-32 32-32L448 510.144l0-160c0-17.664 14.336-32 32-32S512 332.416 512 350.144l0 160 160 0c17.664 0 32 14.336 32 32S689.664 574.144 672 574.144z" p-id="1649"></path></svg>