<?xml version="1.0" standalone="no"?><!DOCTYPE svg PUBLIC "-//W3C//DTD SVG 1.1//EN" "http://www.w3.org/Graphics/SVG/1.1/DTD/svg11.dtd"><svg t="1545053042779" class="icon" style="" viewBox="0 0 1024 1024" version="1.1" xmlns="http://www.w3.org/2000/svg" p-id="2287" xmlns:xlink="http://www.w3.org/1999/xlink" width="48" height="48"><defs><style type="text/css"></style></defs><path d="M860.2 384 163.8 384c-35.4 0-37.2 18.4-35.2 41l26 366c1.8 22.4 7 41 42.2 41l632.4 0c36 0 40.2-18.4 42.2-41l24.2-370.6C897.4 398 895.6 384 860.2 384z" p-id="2288"></path><path d="M852.4 286.6c-1-24.8-9-30.6-30.2-30.6 0 0-242.8 0-286.4 0-43.6 0-48.8 0.6-81.8-34.8C426.6 191.6 437.4 192 380.8 192c-45.2 0-150.6 0-150.6 0-34.8 0-47.2-3-50.4 33.2-3 33.4-10 114.4-11 126.8l686.8 0L852.4 286.6z" p-id="2289"></path></svg>