<?xml version="1.0" standalone="no"?><!DOCTYPE svg PUBLIC "-//W3C//DTD SVG 1.1//EN" "http://www.w3.org/Graphics/SVG/1.1/DTD/svg11.dtd"><svg t="1545050810899" class="icon" style="" viewBox="0 0 1024 1024" version="1.1" xmlns="http://www.w3.org/2000/svg" p-id="980" xmlns:xlink="http://www.w3.org/1999/xlink" width="48" height="48"><defs><style type="text/css"></style></defs><path d="M816.135 192.082c-168.949-168.565-442.515-168.565-611.651 0-35.131 35.604-62.525 75.7-83.143 117.693-78.076 161.129-50.208 360.24 83.143 494.253 169.137 169.047 442.703 169.047 611.651 0 4.969-5.439 9.547-10.121 14.223-15.46 154.35-169.621 149.762-431.925-14.223-596.485v0zM812.319 400.647l-378.846 314.323c-13.175 13.266-33.026 14.887-44.867 3.342l-24.436-23.863c-1.334-0.763-2.67-2.58-4.005-4.871l-155.109-154.726c-10.212-10.399-8.878-28.439 2.86-39.708l18.612-18.418c11.84-11.742 29.497-13.274 39.423-2.768l141.745 141.264 337.712-278.907c12.889-14.126 32.837-15.273 44.867-3.535l23.764 22.911c12.030 11.646 11.646 31.693-1.719 44.959v0zM812.319 400.647z" p-id="981"></path></svg>